# xmcd CD database file
#
# Track frame offsets:
#	150
#	14518
#	37411
#	67923
#	94906
#	118349
#	134591
#	157907
#	173259
#	190888
#	205735
#	235134
#
# Disc length: 3365 seconds
#
# Revision: 0
# Processed by: cddbd v1.5.1PL2 Copyright (c) Steve Scherf et al.
# Submitted via: CDex 1.51
#
DISCID=a30d230c
DTITLE=Boulevard Blues Band - About Time
DYEAR=2003
DGENRE=Blues
TTITLE0=Just can't take it
TTITLE1=Wake up
TTITLE2=Change my lfe
TTITLE3=Statesbrough blues
TTITLE4=Something in my eye
TTITLE5=Know it ain't right
TTITLE6=(Talking about) my babe
TTITLE7=Can't judge a book
TTITLE8=Forget about you
TTITLE9=Treat her right
TTITLE10=Stormy monday blues
TTITLE11=Green stuff
EXTD=YEAR: 2003
EXTT0=
EXTT1=
EXTT2=
EXTT3=
EXTT4=
EXTT5=
EXTT6=
EXTT7=
EXTT8=
EXTT9=
EXTT10=
EXTT11=
PLAYORDER=
